<?xml version="1.0" encoding="utf-8"?>
<!-- Generator: Adobe Illustrator 16.0.0, SVG Export Plug-In . SVG Version: 6.00 Build 0)  -->
<!DOCTYPE svg PUBLIC "-//W3C//DTD SVG 1.1//EN" "http://www.w3.org/Graphics/SVG/1.1/DTD/svg11.dtd">
<svg version="1.1"
	 id="svg4460" xmlns:dc="http://purl.org/dc/elements/1.1/" xmlns:cc="http://creativecommons.org/ns#" xmlns:rdf="http://www.w3.org/1999/02/22-rdf-syntax-ns#" xmlns:svg="http://www.w3.org/2000/svg" xmlns:inkscape="http://www.inkscape.org/namespaces/inkscape"
	 xmlns="http://www.w3.org/2000/svg" xmlns:xlink="http://www.w3.org/1999/xlink" x="0px" y="0px" width="18px" height="18px"
	 viewBox="28.281 3 18 18" enable-background="new 28.281 3 18 18" xml:space="preserve">
<g id="layer1_1_" transform="translate(0,-1028.3622)">
	<g id="swimming-24_1_" transform="translate(-474,-190)">
		
			<path id="path8421-9-1-0-0_1_" inkscape:connector-curvature="0" opacity="0.3" fill="none" stroke="#FFFFFF" stroke-width="2" stroke-linecap="round" stroke-linejoin="round" enable-background="new    " d="
			M512.969,1222.362c-0.184,0-0.504,0.106-0.652,0.179l-4.64,2.214c-0.617,0.288-0.841,1.174-0.435,1.715l1.413,1.893l-5.472,4.178
			c1.309,0.262,2.291,1.072,3.262,1.072c1.159,0,1.739-1.143,3.479-1.143c1.74,0,2.318,1.143,3.479,1.143
			c0.479,0,0.967-0.201,1.486-0.428l-4.893-7.001l3.516-1.75c0.697-0.344,0.652-0.934,0.58-1.285
			C514.023,1222.814,513.606,1222.362,512.969,1222.362z M515.143,1225.79c-1.28,0-2.32,1.023-2.32,2.285
			c0,1.263,1.04,2.286,2.32,2.286s2.318-1.023,2.318-2.286C517.461,1226.814,516.423,1225.79,515.143,1225.79z M502.386,1234.934
			c-0.804,0-1.554,0.461-2.319,0.713v2.322c0,0,1.16-0.75,2.319-0.75c1.16,0,2.319,1.143,4.06,1.143
			c1.739,0,2.288-1.104,3.479-1.143c1.16,0,1.74,1.143,3.479,1.143c1.74,0,2.9-1.143,4.059-1.143c0.814,0,2.32,0.75,2.32,0.75
			v-2.322c-0.745-0.283-1.559-0.713-2.32-0.713c-1.738,0-2.898,1.143-4.059,1.143s-1.738-1.143-3.479-1.143
			c-1.739,0-2.319,1.143-3.479,1.143C505.285,1236.077,504.126,1234.934,502.386,1234.934z"/>
		<path id="path4758_1_" inkscape:connector-curvature="0" fill="#444444" d="M512.969,1222.362c-0.184,0-0.504,0.106-0.652,0.179
			l-4.64,2.214c-0.617,0.288-0.841,1.174-0.435,1.715l1.413,1.893l-5.472,4.178c1.309,0.262,2.291,1.072,3.262,1.072
			c1.159,0,1.739-1.143,3.479-1.143c1.74,0,2.318,1.143,3.479,1.143c0.479,0,0.967-0.201,1.486-0.428l-4.893-7.001l3.516-1.75
			c0.697-0.344,0.652-0.934,0.58-1.285C514.023,1222.814,513.606,1222.362,512.969,1222.362z M515.143,1225.79
			c-1.28,0-2.32,1.023-2.32,2.285c0,1.263,1.04,2.286,2.32,2.286s2.318-1.023,2.318-2.286
			C517.461,1226.814,516.423,1225.79,515.143,1225.79z M504.163,1234.934c-0.804,0-1.554,0.461-2.319,0.713v2.322
			c0,0,1.16-0.75,2.319-0.75c1.16,0,2.319,1.143,4.06,1.143c1.739,0,2.288-1.104,3.479-1.143c1.16,0,1.74,1.143,3.479,1.143
			c1.74,0,2.9-1.143,4.059-1.143c0.814,0,2.32,0.75,2.32,0.75v-2.322c-0.745-0.283-1.559-0.713-2.32-0.713
			c-1.738,0-2.898,1.143-4.059,1.143s-1.738-1.143-3.479-1.143c-1.739,0-2.319,1.143-3.479,1.143
			C507.063,1236.077,505.903,1234.934,504.163,1234.934z"/>
	</g>
</g>
</svg>
