<?xml version="1.0" encoding="UTF-8" standalone="no"?>
<!-- Created with Inkscape (http://www.inkscape.org/) -->

<svg
   xmlns:dc="http://purl.org/dc/elements/1.1/"
   xmlns:cc="http://creativecommons.org/ns#"
   xmlns:rdf="http://www.w3.org/1999/02/22-rdf-syntax-ns#"
   xmlns:svg="http://www.w3.org/2000/svg"
   xmlns="http://www.w3.org/2000/svg"
   xmlns:sodipodi="http://sodipodi.sourceforge.net/DTD/sodipodi-0.dtd"
   xmlns:inkscape="http://www.inkscape.org/namespaces/inkscape"
   version="1.1"
   width="24"
   height="24"
   id="svg4460"
   inkscape:version="0.91+devel "
   sodipodi:docname="swimming-241.svg"
   viewBox="0 0 24 24">
  <sodipodi:namedview
     pagecolor="#ffffff"
     bordercolor="#666666"
     borderopacity="1"
     objecttolerance="10"
     gridtolerance="10"
     guidetolerance="10"
     inkscape:pageopacity="0"
     inkscape:pageshadow="2"
     inkscape:window-width="1280"
     inkscape:window-height="661"
     inkscape:document-units="px"
     id="namedview3469"
     showgrid="false"
     inkscape:zoom="9.8333333"
     inkscape:cx="12"
     inkscape:cy="6.2338983"
     inkscape:window-x="-8"
     inkscape:window-y="-8"
     inkscape:window-maximized="1"
     inkscape:current-layer="svg4460" />
  <defs
     id="defs4462" />
  <metadata
     id="metadata4465">
    <rdf:RDF>
      <cc:Work
         rdf:about="">
        <dc:format>image/svg+xml</dc:format>
        <dc:type
           rdf:resource="http://purl.org/dc/dcmitype/StillImage" />
        <dc:title></dc:title>
      </cc:Work>
    </rdf:RDF>
  </metadata>
  <g
     transform="matrix(0.91525424,0,0,0.70833334,-0.09307661,-728.49107)"
     id="layer1">
    <g
       transform="translate(-474,-190)"
       id="swimming-24"
       style="display:inline">
      <g
         id="g21381" />
      <path
         d="m 489.125,1223.3622 c -0.15817,0 -0.43385,0.093 -0.5625,0.1563 l -4,1.9375 c -0.53242,0.2521 -0.72614,1.027 -0.375,1.5 l 1.21875,1.6562 -4.71875,3.6563 c 1.12895,0.229 1.9761,0.9379 2.8125,0.9375 1,5e-4 1.5,-1 3,-1 1.5,0 2,0.9995 3,1 0.4128,2e-4 0.83328,-0.1749 1.28125,-0.375 l -4.21875,-6.125 3.03125,-1.5313 c 0.60198,-0.301 0.56239,-0.8172 0.5,-1.125 -0.0591,-0.2918 -0.41903,-0.6875 -0.96875,-0.6875 z m 1.875,3 c -1.10457,0 -2,0.8954 -2,2 0,1.1046 0.89543,2 2,2 1.10457,0 2,-0.8954 2,-2 0,-1.1046 -0.89543,-2 -2,-2 z m -11,8 c -0.69406,0 -1.33976,0.4049 -2,0.625 v 2.0313 c 0,0 1,-0.6558 2,-0.6563 1,-5e-4 2,1 3.5,1 1.5,0 1.97352,-0.9653 3,-1 1,5e-4 1.5,1 3,1 1.5,0 2.5,-1 3.5,-1 0.70165,0 2,0.6563 2,0.6563 v -2.0313 c -0.6416,-0.2468 -1.34343,-0.625 -2,-0.625 -1.5,0 -2.5,1.0005 -3.5,1 -1,-5e-4 -1.5,-1 -3,-1 -1.5,0 -2,1.0005 -3,1 -1,5e-4 -2,-1 -3.5,-1 z"
         inkscape:connector-curvature="0"
         id="path8421-9-1-0-0"
         style="color:#000000;display:inline;overflow:visible;visibility:visible;opacity:0.3;fill:none;stroke:#ffffff;stroke-width:2;stroke-linecap:round;stroke-linejoin:round;stroke-miterlimit:4;stroke-dasharray:none;stroke-dashoffset:0;stroke-opacity:1;marker:none;enable-background:accumulate" />
      <path
         d="m 489.125,1223.3622 c -0.15817,0 -0.43385,0.093 -0.5625,0.1563 l -4,1.9375 c -0.53242,0.2521 -0.72614,1.027 -0.375,1.5 l 1.21875,1.6562 -4.71875,3.6563 c 1.12895,0.229 1.9761,0.9379 2.8125,0.9375 1,5e-4 1.5,-1 3,-1 1.5,0 2,0.9995 3,1 0.4128,2e-4 0.83328,-0.1749 1.28125,-0.375 l -4.21875,-6.125 3.03125,-1.5313 c 0.60198,-0.301 0.56239,-0.8172 0.5,-1.125 -0.0591,-0.2918 -0.41903,-0.6875 -0.96875,-0.6875 z m 1.875,3 c -1.10457,0 -2,0.8954 -2,2 0,1.1046 0.89543,2 2,2 1.10457,0 2,-0.8954 2,-2 0,-1.1046 -0.89543,-2 -2,-2 z m -11,8 c -0.69406,0 -1.33976,0.4049 -2,0.625 v 2.0313 c 0,0 1,-0.6558 2,-0.6563 1,-5e-4 2,1 3.5,1 1.5,0 1.97352,-0.9653 3,-1 1,5e-4 1.5,1 3,1 1.5,0 2.5,-1 3.5,-1 0.70165,0 2,0.6563 2,0.6563 v -2.0313 c -0.6416,-0.2468 -1.34343,-0.625 -2,-0.625 -1.5,0 -2.5,1.0005 -3.5,1 -1,-5e-4 -1.5,-1 -3,-1 -1.5,0 -2,1.0005 -3,1 -1,5e-4 -2,-1 -3.5,-1 z"
         inkscape:connector-curvature="0"
         id="path4758"
         style="color:#000000;display:inline;overflow:visible;visibility:visible;fill:#444444;fill-opacity:1;fill-rule:nonzero;stroke:none;stroke-width:2;marker:none;enable-background:accumulate" />
    </g>
  </g>
  <rect
     width="21.966103"
     height="17"
     x="0"
     y="0.79660988"
     id="canvas"
     style="visibility:hidden;fill:none;stroke:none;stroke-width:0.80517393" />
</svg>
